<svg width="32" height="32" viewBox="0 0 32 32" fill="none" xmlns="http://www.w3.org/2000/svg">
<g clip-path="url(#clip0_1_441)">
<path d="M30.5 19.1779V30.0599H24.282V19.9059C24.282 17.3559 23.382 15.6159 21.134 15.6159C19.414 15.6159 18.394 16.7879 17.944 17.9219C17.782 18.3259 17.74 18.8919 17.74 19.4599V30.0559H11.518C11.518 30.0559 11.602 12.8599 11.518 11.0819H17.736V13.7739L17.694 13.8359H17.736V13.7739C18.562 12.4839 20.036 10.6399 23.342 10.6399C27.432 10.6399 30.5 13.3539 30.5 19.1799V19.1779ZM5.018 1.93994C2.89 1.93994 1.5 3.35594 1.5 5.21994C1.5 7.03994 2.85 8.49994 4.936 8.49994H4.978C7.148 8.49994 8.492 7.04194 8.492 5.21994C8.45 3.35594 7.14 1.93994 5.018 1.93994ZM1.866 30.0599H8.084V11.0859H1.866V30.0599Z" fill="#68737D"/>
</g>
<defs>
<clipPath id="clip0_1_441">
<rect width="32" height="32" fill="white"/>
</clipPath>
</defs>
</svg>
