<svg width="29" height="28" viewBox="0 0 29 28" fill="none" xmlns="http://www.w3.org/2000/svg">
<path d="M28.172 14.086C28.172 12.2362 27.8077 10.4045 27.0998 8.69552C26.3919 6.98653 25.3543 5.4337 24.0463 4.12569C22.7383 2.81769 21.1855 1.78012 19.4765 1.07223C17.7675 0.364345 15.9358 0 14.086 0C12.2362 0 10.4045 0.364345 8.69552 1.07223C6.98653 1.78012 5.4337 2.81769 4.12569 4.12569C2.81769 5.4337 1.78012 6.98653 1.07223 8.69552C0.364345 10.4045 -2.75642e-08 12.2362 0 14.086C0.000126044 17.4403 1.19706 20.6845 3.37552 23.235C5.55399 25.7856 8.57102 27.4752 11.884 28V18.158H8.308V14.086H11.884V10.982C11.884 7.452 13.986 5.502 17.204 5.502C18.746 5.502 20.356 5.778 20.356 5.778V9.244H18.58C16.83 9.244 16.284 10.33 16.284 11.444V14.086H20.19L19.566 18.158H16.284V28C19.597 27.4752 22.614 25.7856 24.7925 23.235C26.9709 20.6845 28.1679 17.4403 28.168 14.086H28.172Z" fill="#68737D"/>
</svg>
